<mxfile host="65bd71144e" scale="3" border="0">
    <diagram id="BDLVaByJGRzkJpORX_Ht" name="Page-1">
        <mxGraphModel dx="1492" dy="1014" grid="1" gridSize="10" guides="1" tooltips="1" connect="1" arrows="1" fold="1" page="1" pageScale="1" pageWidth="700" pageHeight="1000" math="0" shadow="0">
            <root>
                <mxCell id="0"/>
                <mxCell id="1" parent="0"/>
                <mxCell id="16" value="" style="edgeStyle=none;html=1;exitX=0.5;exitY=1;exitDx=0;exitDy=0;entryX=0.5;entryY=0;entryDx=0;entryDy=0;fontFamily=Times New Roman;" edge="1" parent="1" source="2" target="3">
                    <mxGeometry relative="1" as="geometry"/>
                </mxCell>
                <mxCell id="2" value="Conv2D 1x1x1" style="rounded=0;whiteSpace=wrap;html=1;fillColor=none;fontFamily=Times New Roman;" vertex="1" parent="1">
                    <mxGeometry x="40" y="80" width="120" height="40" as="geometry"/>
                </mxCell>
                <mxCell id="20" style="edgeStyle=none;html=1;exitX=0.5;exitY=1;exitDx=0;exitDy=0;entryX=0.5;entryY=0;entryDx=0;entryDy=0;fontFamily=Times New Roman;" edge="1" parent="1" source="3" target="4">
                    <mxGeometry relative="1" as="geometry"/>
                </mxCell>
                <mxCell id="3" value="Resizing (100x100x1)" style="rounded=0;whiteSpace=wrap;html=1;fillColor=none;fontFamily=Times New Roman;" vertex="1" parent="1">
                    <mxGeometry x="40" y="140" width="120" height="40" as="geometry"/>
                </mxCell>
                <mxCell id="22" style="edgeStyle=none;html=1;exitX=0.5;exitY=1;exitDx=0;exitDy=0;entryX=0.5;entryY=0;entryDx=0;entryDy=0;fontFamily=Times New Roman;" edge="1" parent="1" source="4" target="5">
                    <mxGeometry relative="1" as="geometry"/>
                </mxCell>
                <mxCell id="4" value="Conv2D" style="rounded=0;whiteSpace=wrap;html=1;fillColor=none;fontFamily=Times New Roman;" vertex="1" parent="1">
                    <mxGeometry x="40" y="200" width="120" height="40" as="geometry"/>
                </mxCell>
                <mxCell id="23" style="edgeStyle=none;html=1;exitX=0.5;exitY=1;exitDx=0;exitDy=0;entryX=0.5;entryY=0;entryDx=0;entryDy=0;fontFamily=Times New Roman;" edge="1" parent="1" source="5" target="6">
                    <mxGeometry relative="1" as="geometry"/>
                </mxCell>
                <mxCell id="5" value="Conv2D" style="rounded=0;whiteSpace=wrap;html=1;fillColor=none;fontFamily=Times New Roman;" vertex="1" parent="1">
                    <mxGeometry x="40" y="260" width="120" height="40" as="geometry"/>
                </mxCell>
                <mxCell id="39" style="edgeStyle=none;rounded=0;html=1;exitX=0.5;exitY=1;exitDx=0;exitDy=0;entryX=0.5;entryY=0;entryDx=0;entryDy=0;fontFamily=Times New Roman;" edge="1" parent="1" source="6" target="33">
                    <mxGeometry relative="1" as="geometry"/>
                </mxCell>
                <mxCell id="6" value="BatchNorm" style="rounded=0;whiteSpace=wrap;html=1;fillColor=none;fontFamily=Times New Roman;" vertex="1" parent="1">
                    <mxGeometry x="40" y="320" width="120" height="40" as="geometry"/>
                </mxCell>
                <mxCell id="44" style="edgeStyle=none;rounded=0;html=1;exitX=0.5;exitY=1;exitDx=0;exitDy=0;entryX=0.5;entryY=0;entryDx=0;entryDy=0;fontFamily=Times New Roman;" edge="1" parent="1" source="7" target="8">
                    <mxGeometry relative="1" as="geometry"/>
                </mxCell>
                <mxCell id="7" value="Conv2D" style="rounded=0;whiteSpace=wrap;html=1;fillColor=none;fontFamily=Times New Roman;" vertex="1" parent="1">
                    <mxGeometry x="200" y="200" width="120" height="40" as="geometry"/>
                </mxCell>
                <mxCell id="45" style="edgeStyle=none;rounded=0;html=1;exitX=0.5;exitY=1;exitDx=0;exitDy=0;fontFamily=Times New Roman;" edge="1" parent="1" source="8" target="9">
                    <mxGeometry relative="1" as="geometry"/>
                </mxCell>
                <mxCell id="8" value="Conv2D" style="rounded=0;whiteSpace=wrap;html=1;fillColor=none;fontFamily=Times New Roman;" vertex="1" parent="1">
                    <mxGeometry x="200" y="260" width="120" height="40" as="geometry"/>
                </mxCell>
                <mxCell id="46" style="edgeStyle=none;rounded=0;html=1;exitX=0.5;exitY=1;exitDx=0;exitDy=0;entryX=0.5;entryY=0;entryDx=0;entryDy=0;fontFamily=Times New Roman;" edge="1" parent="1" source="9" target="34">
                    <mxGeometry relative="1" as="geometry"/>
                </mxCell>
                <mxCell id="9" value="BatchNorm" style="rounded=0;whiteSpace=wrap;html=1;fillColor=none;fontFamily=Times New Roman;" vertex="1" parent="1">
                    <mxGeometry x="200" y="320" width="120" height="40" as="geometry"/>
                </mxCell>
                <mxCell id="27" style="edgeStyle=none;rounded=0;html=1;exitX=0.5;exitY=1;exitDx=0;exitDy=0;entryX=0.5;entryY=0;entryDx=0;entryDy=0;fontFamily=Times New Roman;" edge="1" parent="1" source="10" target="11">
                    <mxGeometry relative="1" as="geometry"/>
                </mxCell>
                <mxCell id="10" value="Conv2D" style="rounded=0;whiteSpace=wrap;html=1;fillColor=none;fontFamily=Times New Roman;" vertex="1" parent="1">
                    <mxGeometry x="360" y="200" width="120" height="40" as="geometry"/>
                </mxCell>
                <mxCell id="28" style="edgeStyle=none;rounded=0;html=1;exitX=0.5;exitY=1;exitDx=0;exitDy=0;entryX=0.5;entryY=0;entryDx=0;entryDy=0;fontFamily=Times New Roman;" edge="1" parent="1" source="11" target="12">
                    <mxGeometry relative="1" as="geometry"/>
                </mxCell>
                <mxCell id="11" value="Conv2D" style="rounded=0;whiteSpace=wrap;html=1;fillColor=none;fontFamily=Times New Roman;" vertex="1" parent="1">
                    <mxGeometry x="360" y="260" width="120" height="40" as="geometry"/>
                </mxCell>
                <mxCell id="42" style="edgeStyle=none;rounded=0;html=1;exitX=0.5;exitY=1;exitDx=0;exitDy=0;fontFamily=Times New Roman;" edge="1" parent="1" source="12" target="35">
                    <mxGeometry relative="1" as="geometry"/>
                </mxCell>
                <mxCell id="12" value="BatchNorm" style="rounded=0;whiteSpace=wrap;html=1;fillColor=none;fontFamily=Times New Roman;" vertex="1" parent="1">
                    <mxGeometry x="360" y="320" width="120" height="40" as="geometry"/>
                </mxCell>
                <mxCell id="13" value="Conv2D" style="rounded=0;whiteSpace=wrap;html=1;fillColor=none;fontFamily=Times New Roman;" vertex="1" parent="1">
                    <mxGeometry x="520" y="200" width="120" height="40" as="geometry"/>
                </mxCell>
                <mxCell id="14" value="Conv2D" style="rounded=0;whiteSpace=wrap;html=1;fillColor=none;fontFamily=Times New Roman;" vertex="1" parent="1">
                    <mxGeometry x="520" y="260" width="120" height="40" as="geometry"/>
                </mxCell>
                <mxCell id="15" value="BatchNorm" style="rounded=0;whiteSpace=wrap;html=1;fillColor=none;fontFamily=Times New Roman;" vertex="1" parent="1">
                    <mxGeometry x="520" y="320" width="120" height="40" as="geometry"/>
                </mxCell>
                <mxCell id="49" style="edgeStyle=none;rounded=0;html=1;exitX=0.5;exitY=1;exitDx=0;exitDy=0;entryX=0.5;entryY=0;entryDx=0;entryDy=0;fontFamily=Times New Roman;" edge="1" parent="1" source="30" target="38">
                    <mxGeometry relative="1" as="geometry"/>
                </mxCell>
                <mxCell id="30" value="Dense" style="rounded=0;whiteSpace=wrap;html=1;fillColor=none;fontFamily=Times New Roman;" vertex="1" parent="1">
                    <mxGeometry x="520" y="500" width="120" height="40" as="geometry"/>
                </mxCell>
                <mxCell id="40" style="edgeStyle=none;rounded=0;html=1;exitX=0.5;exitY=1;exitDx=0;exitDy=0;entryX=0.5;entryY=0;entryDx=0;entryDy=0;fontFamily=Times New Roman;" edge="1" parent="1" source="33" target="7">
                    <mxGeometry relative="1" as="geometry">
                        <Array as="points">
                            <mxPoint x="100" y="430"/>
                            <mxPoint x="180" y="430"/>
                            <mxPoint x="180" y="190"/>
                            <mxPoint x="260" y="190"/>
                        </Array>
                    </mxGeometry>
                </mxCell>
                <mxCell id="33" value="MaxPool" style="rounded=0;whiteSpace=wrap;html=1;fillColor=none;fontFamily=Times New Roman;" vertex="1" parent="1">
                    <mxGeometry x="40" y="380" width="120" height="40" as="geometry"/>
                </mxCell>
                <mxCell id="41" style="edgeStyle=none;rounded=0;html=1;exitX=0.5;exitY=1;exitDx=0;exitDy=0;entryX=0.5;entryY=0;entryDx=0;entryDy=0;fontFamily=Times New Roman;" edge="1" parent="1" source="34" target="10">
                    <mxGeometry relative="1" as="geometry">
                        <Array as="points">
                            <mxPoint x="260" y="430"/>
                            <mxPoint x="340" y="430"/>
                            <mxPoint x="340" y="190"/>
                            <mxPoint x="420" y="190"/>
                            <mxPoint x="420" y="200"/>
                        </Array>
                    </mxGeometry>
                </mxCell>
                <mxCell id="34" value="MaxPool" style="rounded=0;whiteSpace=wrap;html=1;fillColor=none;fontFamily=Times New Roman;" vertex="1" parent="1">
                    <mxGeometry x="200" y="380" width="120" height="40" as="geometry"/>
                </mxCell>
                <mxCell id="43" style="edgeStyle=none;rounded=0;html=1;exitX=0.5;exitY=1;exitDx=0;exitDy=0;entryX=0.5;entryY=0;entryDx=0;entryDy=0;fontFamily=Times New Roman;" edge="1" parent="1" source="35" target="13">
                    <mxGeometry relative="1" as="geometry">
                        <Array as="points">
                            <mxPoint x="420" y="430"/>
                            <mxPoint x="500" y="430"/>
                            <mxPoint x="500" y="190"/>
                            <mxPoint x="580" y="190"/>
                        </Array>
                    </mxGeometry>
                </mxCell>
                <mxCell id="35" value="MaxPool" style="rounded=0;whiteSpace=wrap;html=1;fillColor=none;fontFamily=Times New Roman;" vertex="1" parent="1">
                    <mxGeometry x="360" y="380" width="120" height="40" as="geometry"/>
                </mxCell>
                <mxCell id="47" style="edgeStyle=none;rounded=0;html=1;exitX=0.5;exitY=1;exitDx=0;exitDy=0;entryX=0.5;entryY=0;entryDx=0;entryDy=0;fontFamily=Times New Roman;" edge="1" parent="1" source="36" target="37">
                    <mxGeometry relative="1" as="geometry">
                        <Array as="points">
                            <mxPoint x="580" y="440"/>
                        </Array>
                    </mxGeometry>
                </mxCell>
                <mxCell id="36" value="MaxPool" style="rounded=0;whiteSpace=wrap;html=1;fillColor=none;fontFamily=Times New Roman;" vertex="1" parent="1">
                    <mxGeometry x="520" y="380" width="120" height="40" as="geometry"/>
                </mxCell>
                <mxCell id="48" style="edgeStyle=none;rounded=0;html=1;exitX=0.5;exitY=1;exitDx=0;exitDy=0;entryX=0.5;entryY=0;entryDx=0;entryDy=0;fontFamily=Times New Roman;" edge="1" parent="1" source="37" target="30">
                    <mxGeometry relative="1" as="geometry"/>
                </mxCell>
                <mxCell id="37" value="MaxPool" style="rounded=0;whiteSpace=wrap;html=1;fillColor=none;fontFamily=Times New Roman;" vertex="1" parent="1">
                    <mxGeometry x="520" y="440" width="120" height="40" as="geometry"/>
                </mxCell>
                <mxCell id="51" style="edgeStyle=none;rounded=0;html=1;exitX=0.5;exitY=1;exitDx=0;exitDy=0;entryX=0.5;entryY=0;entryDx=0;entryDy=0;fontFamily=Times New Roman;" edge="1" parent="1" source="38" target="50">
                    <mxGeometry relative="1" as="geometry"/>
                </mxCell>
                <mxCell id="38" value="Dense" style="rounded=0;whiteSpace=wrap;html=1;fillColor=none;fontFamily=Times New Roman;" vertex="1" parent="1">
                    <mxGeometry x="520" y="560" width="120" height="40" as="geometry"/>
                </mxCell>
                <mxCell id="55" style="edgeStyle=none;rounded=0;html=1;exitX=0;exitY=0.5;exitDx=0;exitDy=0;fontSize=18;verticalAlign=middle;align=right;fontFamily=Times New Roman;" edge="1" parent="1" source="50" target="54">
                    <mxGeometry relative="1" as="geometry"/>
                </mxCell>
                <mxCell id="50" value="Dense" style="rounded=0;whiteSpace=wrap;html=1;fillColor=none;fontFamily=Times New Roman;" vertex="1" parent="1">
                    <mxGeometry x="520" y="620" width="120" height="40" as="geometry"/>
                </mxCell>
                <mxCell id="53" style="edgeStyle=none;rounded=0;html=1;exitX=0.5;exitY=1;exitDx=0;exitDy=0;fontFamily=Times New Roman;" edge="1" parent="1" source="52" target="2">
                    <mxGeometry relative="1" as="geometry"/>
                </mxCell>
                <mxCell id="52" value="Input" style="text;html=1;strokeColor=none;fillColor=none;align=center;verticalAlign=bottom;whiteSpace=wrap;rounded=0;fontSize=18;fontFamily=Times New Roman;" vertex="1" parent="1">
                    <mxGeometry x="40" y="30" width="120" height="30" as="geometry"/>
                </mxCell>
                <mxCell id="54" value="Output" style="text;html=1;strokeColor=none;fillColor=none;align=right;verticalAlign=middle;whiteSpace=wrap;rounded=0;fontSize=18;fontFamily=Times New Roman;" vertex="1" parent="1">
                    <mxGeometry x="380" y="620" width="120" height="40" as="geometry"/>
                </mxCell>
            </root>
        </mxGraphModel>
    </diagram>
</mxfile>